<?xml version="1.0" encoding="utf-8" ?><svg xmlns="http://www.w3.org/2000/svg" xmlns:xlink="http://www.w3.org/1999/xlink" width="500" height="500" viewBox="0 0 500 500"><path fill="#12B5A2" d="M141.004 77.7186C143.615 76.4751 145.893 74.2875 148.285 72.5429C155.339 67.3967 163.958 59.4785 171.526 55.3987C176.905 53.4473 183.503 53.258 189.215 52.4082C193.978 51.6997 207.655 49.0988 211.588 50.8777C220.675 54.9882 230.196 64.3016 239.439 67.9353C239.526 66.5154 239.845 63.4178 241.146 62.6644L241.486 62.965C241.875 64.0055 241.918 64.0706 241.943 65.1605L242.335 66.7583C243.809 69.1158 247.611 72.6327 249.959 74.1317C251.203 74.6974 252.444 75.2694 253.682 75.8478C254.913 76.1615 260.745 77.2206 260.879 78.3329C260.427 79.227 259.661 80.4372 259.135 81.329C259.917 83.2655 261.58 87.2697 261.526 89.2431C261.415 93.2836 259.781 98.7203 258.721 102.724C255.878 113.257 252.823 123.731 249.556 134.14C247.422 140.975 242.015 156 241.778 162.534C241.622 166.824 248.516 185.462 249.984 191.244C252.529 201.558 254.667 211.968 256.394 222.45C257.958 231.471 259.774 240.856 260.522 250.248C262.534 275.5 261.531 303.655 253.469 327.785C250.478 336.737 243.225 350.032 235.891 355.682C230.186 360.076 219.252 358.24 217.672 350.176C216.442 343.965 218.082 336.592 218.396 330.093C219.592 305.397 214.879 280.633 201.522 259.534C194.024 248.117 183.284 235.678 169.519 232.439C158.192 229.774 149.5 236.849 143.037 245.44C130.483 262.129 126.363 285.22 126.955 305.753C127.108 311.038 127.333 315.929 128.358 321.116C130.609 333.983 135.67 345.889 139.454 358.281C142.173 367.187 132.793 373.58 124.43 370.894C117.903 368.798 114.754 365.826 109.925 361.03C103.146 354.227 97.3575 346.504 92.7305 338.089C84.0055 322.453 75.4907 296.402 72.0421 279.073C68.8757 263.163 67.8616 244.436 67.1451 228.214C66.834 221.176 66.7276 214.13 66.8258 207.085C66.9232 201.024 67.636 192.302 67.361 186.613C67.2176 183.645 59.7875 172.822 57.8264 169.642L40.8878 142.059C37.6276 136.82 25.571 120.662 28.6338 114.936C33.0119 106.751 42.3496 97.3077 48.5858 90.044L58.4062 78.6526C60.6311 76.0682 65.4173 69.9521 68.4468 69.0385C72.95 67.6806 80.8696 66.8988 85.6212 66.3602C91.5053 65.6933 97.7164 64.1488 103.461 64.0442C108.35 63.9551 115.216 67.3681 119.748 69.1789L141.004 77.7186Z"/><path fill="#FEFEFE" d="M152.15 97.4699C155.329 94.5156 164.745 88.5662 168.723 86.0427C172.593 83.5876 196.635 66.4189 198.854 66.9338C200.061 68.0636 200.335 69.8662 200.75 71.4817C199.339 75.1556 198.45 75.6173 195.262 77.8951L195.478 78.4217C196.161 78.6375 195.832 78.6596 196.478 78.5133L196.429 79.1574C197.639 80.2098 199.095 80.2354 200.259 81.1334L198.508 80.8973L198.358 81.0893C198.677 81.3519 198.904 81.4439 199.021 81.7408C202.607 84.0905 203.694 87.0347 204.693 90.9055C197.521 92.1546 190.568 92.7583 183.413 93.8089C176.957 94.7568 170.597 95.7743 164.093 96.4799C159.993 96.9247 156.301 97.6995 152.15 97.4699Z"/><path fill="#2BAEA2" d="M195.262 77.8951L195.478 78.4217C196.161 78.6375 195.832 78.6596 196.478 78.5133L196.429 79.1574C197.639 80.2098 199.095 80.2354 200.259 81.1334L198.508 80.8973L198.358 81.0893C198.677 81.3519 198.904 81.4439 199.021 81.7408C198.994 81.7421 196.979 81.3981 196.733 81.3585C194.267 80.9614 192.936 80.9613 190.485 81.2331C192.291 79.5315 193.11 78.9818 195.262 77.8951Z"/><path fill="#FEFEFE" d="M246.4 94.8075C246.724 94.0016 246.855 93.5211 247.673 93.145C249.66 92.2312 253.029 92.187 255.182 92.4221C253.697 100.886 250.093 109.785 247.908 118.191C246.038 125.384 243.535 132.745 241.48 139.906C241.309 140.504 240.904 140.992 240.432 141.386L239.969 141.306C238.903 139.346 240.726 129.773 240.977 126.786C241.725 117.88 242.675 108.962 242.731 100.006C242.832 98.5432 242.836 97.4219 243.272 96.015L244.919 94.9548L245.339 94.0722C245.777 94.3534 245.983 94.4874 246.4 94.8075Z"/><path fill="#2BAEA2" d="M245.339 94.0722C245.777 94.3534 245.983 94.4874 246.4 94.8075C246.128 95.9147 245.35 99.4986 244.806 100.274C243.488 99.604 244.042 99.6531 242.731 100.006C242.832 98.5432 242.836 97.4219 243.272 96.015L244.919 94.9548L245.339 94.0722Z"/><path fill="#E0F7F9" d="M243.272 96.015C244.205 97.1905 244.106 98.5768 244.806 100.274C243.488 99.604 244.042 99.6531 242.731 100.006C242.832 98.5432 242.836 97.4219 243.272 96.015Z"/><path fill="#FEFEFE" d="M228.722 82.8148L228.669 82.6875C228.752 82.1042 232.975 79.3442 233.665 78.9736C239.245 75.975 238.757 69.583 241.943 65.1605L242.335 66.7583C243.809 69.1158 247.611 72.6327 249.959 74.1317C251.203 74.6974 252.444 75.2694 253.682 75.8478C254.913 76.1615 260.745 77.2206 260.879 78.3329C259.607 78.3762 259.221 78.606 258.035 79.0715L257.502 78.9286C255.214 79.5891 251.519 82.2718 249.9 84.0374C247.563 86.585 245.784 90.6553 245.339 94.0722L244.919 94.9548C243.781 91.462 240.842 87.6626 237.775 85.5516C235.239 83.9834 231.739 82.5601 228.722 82.8148Z"/><path fill="#2BAEA2" d="M251.692 76.4046C252.699 76.3396 252.75 76.2909 253.682 75.8478C254.913 76.1615 260.745 77.2206 260.879 78.3329C259.607 78.3762 259.221 78.606 258.035 79.0715L257.502 78.9286C257.202 77.9857 252.842 76.7866 251.692 76.4046Z"/><path fill="#2BAEA2" d="M242.335 66.7583C243.809 69.1158 247.611 72.6327 249.959 74.1317L247.347 74.222C244.83 72.4063 243.208 69.6906 242.335 66.7583Z"/><path fill="#2BAEA2" d="M247.347 74.222L249.959 74.1317C251.203 74.6974 252.444 75.2694 253.682 75.8478C252.75 76.2909 252.699 76.3396 251.692 76.4046C249.863 75.717 248.936 75.3127 247.347 74.222Z"/><path fill="#FEFEFE" d="M204.248 69.2871L204.104 68.4783L204.351 68.2554C206.761 68.8187 225.497 79.3307 227.869 81.0067C226.727 81.6775 224.454 82.875 223.747 83.8392L223.905 84.1031C224.718 84.1447 224.78 84.1485 225.58 84.0172L228.722 82.8148C231.739 82.5601 235.239 83.9834 237.775 85.5516C237.365 85.9136 237.232 86.1223 236.763 86.2942C232.709 88.5478 219.174 88.434 214.071 89.8517C210.637 90.8058 207.881 91.0683 207.417 86.9464C206.934 82.6447 208.414 81.7361 211.728 79.4553C212.925 78.6269 215.1 77.6723 215.937 76.6378L215.796 76.233L215.042 75.8806C214.246 76.617 213.651 77.3317 212.557 77.4027C211.345 76.3139 208.369 75.9026 207.16 75.1628C205.611 74.2158 203.827 71.7501 202.701 70.2864L202.8 70.1573C203.448 70.1256 203.444 70.1421 204.05 69.9287L204.248 69.2871Z"/><path fill="#2BAEA2" d="M204.248 69.2871C206.67 73.0488 207.512 74.3147 212.152 75.3361C213.111 75.5389 214.075 75.7204 215.042 75.8806C214.246 76.617 213.651 77.3317 212.557 77.4027C211.345 76.3139 208.369 75.9026 207.16 75.1628C205.611 74.2158 203.827 71.7501 202.701 70.2864L202.8 70.1573C203.448 70.1256 203.444 70.1421 204.05 69.9287L204.248 69.2871Z"/><path fill="#2BAEA2" d="M228.722 82.8148C231.739 82.5601 235.239 83.9834 237.775 85.5516C237.365 85.9136 237.232 86.1223 236.763 86.2942C232.189 84.3364 230.61 84.0396 225.58 84.0172L228.722 82.8148Z"/><path fill="#FEFEFE" d="M202.701 70.2864C203.827 71.7501 205.611 74.2158 207.16 75.1628C208.369 75.9026 211.345 76.3139 212.557 77.4027C207.915 78.9234 206.161 82.4643 205.165 86.8633C203.685 84.0325 203.128 82.7078 200.259 81.1334C199.095 80.2354 197.639 80.2098 196.429 79.1574L196.478 78.5133C199.563 77.6184 202.14 73.3069 202.701 70.2864Z"/><path fill="#FEFEFE" d="M76.5773 189.753C77.8378 189.724 78.5818 189.681 79.7363 190.203C83.7537 192.021 87.6779 194.031 91.6748 195.908L126.31 212.43C131.22 214.769 136.157 217.049 141.122 219.271C144.548 220.832 149.451 222.814 152.377 224.996C150.647 226.836 147.262 228.608 145.097 230.258C138.746 235.099 134.582 240.865 130.69 247.673C121.881 263.081 119.005 278.42 118.322 295.952C118.026 303.572 117.753 308.256 118.638 315.898C119.64 324.562 121.222 329.897 123.476 338.198C124.459 342.221 125.712 346.173 127.227 350.027C128.552 353.321 130.3 356.844 131.163 360.236C130.017 363.833 128.11 364.379 125.051 361.998C115.38 354.474 106.196 345.839 100.681 334.712C95.7384 324.738 91.911 314.21 87.8627 303.853C84.1938 295.565 83.3927 286.386 81.1629 277.808C78.4335 267.307 77.884 258.765 77.3558 248.004C76.7991 236.663 75.3969 224.721 75.7632 213.311C75.9478 207.559 74.987 194.777 76.5773 189.753Z"/><path fill="#FEFEFE" d="M232.142 168.946L232.862 168.974C233.97 169.754 234.536 171.377 234.887 172.661C239.334 188.913 244.208 205.109 247.492 221.647C248.391 226.176 248.697 230.837 249.389 235.397C249.817 238.212 250.707 240.961 251.066 243.788C254.05 273.346 253.76 308.544 240.357 335.678C238.438 339.564 233.269 347.835 228.665 349.704C228.217 349.886 227.501 349.588 227.109 349.211C226.409 348.519 226.215 346.911 226.232 345.949C226.409 335.687 227.897 325.459 227.144 315.172C226.602 307.639 225.639 300.143 224.258 292.719C222.561 283.573 218.022 273.603 214.342 265.013C208.864 252.226 198.494 238.399 187.025 230.524C183.862 228.356 180.457 226.565 176.878 225.189C175.237 224.554 171.627 223.593 170.426 222.77L170.342 222.262C171.417 220.179 183.337 210.593 185.818 208.499C192.816 202.574 199.779 196.61 206.709 190.607L222.998 176.492C225.815 174.078 229.159 171.038 232.142 168.946Z"/><path fill="#FEFEFE" d="M140.549 107.859C141.405 107.846 141.371 107.865 142.194 108.135C142.953 109.083 142.88 109.939 142.512 111.103C139.432 120.845 136.237 130.65 133.294 140.431C129.22 153.973 125.489 167.61 121.077 181.051C120.421 183.05 119.846 186.975 118.562 188.543L118.256 188.497C115.167 181.609 112.02 174.746 108.816 167.91C103.087 155.878 97.463 143.797 91.9434 131.667C90.4886 128.496 85.6972 118.831 85.0666 115.894C85.5949 115.232 87.7888 114.704 88.6779 114.578C98.0973 113.286 107.544 112.228 116.959 110.887C124.734 109.78 132.726 108.45 140.549 107.859Z"/><path fill="#FEFEFE" d="M203.629 99.355L205.863 99.4838C205.937 103.339 204.512 109.639 203.821 113.732L197.831 147.526C196.231 156.809 195.368 170.489 192.484 178.864C191.185 176.627 189.165 173.704 187.718 171.389L176.127 152.868C166.985 137.555 156.799 122.312 147.583 106.959C148.905 106.617 150.326 106.382 151.681 106.184C166.536 104.011 181.461 102.313 196.3 100.057C198.684 99.6946 201.224 99.5106 203.629 99.355Z"/><path fill="#FEFEFE" d="M148.31 115.728C151.393 116.757 158.241 129.592 160.529 133.134C170.195 148.097 178.947 163.743 188.746 178.62C189.366 179.562 190.297 180.683 190.066 181.814L189.543 182.011C184.917 182.273 179.889 182.262 175.188 182.466C170.104 182.688 163.374 183.161 158.407 182.859C157.386 181.841 156.683 180.828 156.488 179.365C155.286 170.359 154.36 161.291 153.132 152.291L149.788 127.53C149.355 124.368 148.008 118.466 148.31 115.728Z"/><path fill="#FEFEFE" d="M144.132 115.551C144.432 115.667 144.507 115.74 144.78 115.913C146.365 125.361 147.204 134.489 148.551 143.837L151.733 167.375C152.527 173.168 153.289 177.387 153.805 183.317C148.808 184.969 143.827 185.93 138.735 187.204C136.181 187.844 133.643 188.512 131.07 189.077C128.982 189.56 124.229 190.926 122.454 190.016C121.893 188.558 124.685 180.167 125.29 178.252C128.823 167.059 132.041 155.766 135.416 144.531C138.294 134.95 140.788 124.944 144.132 115.551Z"/><path fill="#FEFEFE" d="M78.126 116.104C82.1309 115.742 81.9566 116.766 83.63 120.095C85.1876 123.194 86.3934 126.492 87.8493 129.64L101.719 159.845C103.352 163.408 105.022 166.953 106.73 170.481C107.722 172.497 112.232 180.703 111.22 182.495C109.734 182 100.078 171.578 98.3296 169.761C88.3155 159.456 78.4542 148.707 68.4856 138.365L57.7395 127.337C56.535 126.101 51.3779 121.275 51.6682 119.964C54.3993 118.58 74.3913 116.329 78.126 116.104Z"/><path fill="#FEFEFE" d="M53.2143 128.406C56.7199 129.949 111.729 186.694 113.514 190.696C110.549 190.9 107.465 190.161 104.526 189.755C96.5202 188.648 88.6282 186.87 80.6275 185.728C78.6049 185.44 76.227 185.151 74.3226 184.48C72.5104 182.228 66.6681 164.453 65.1849 160.602C62.4881 153.682 59.8401 146.743 57.2413 139.786C55.9432 136.31 54.1745 131.927 53.2143 128.406Z"/><path fill="#FEFEFE" d="M209.668 98.9184C212.742 97.7656 237.639 93.5724 238.895 95.3487C238.644 97.6432 235.861 102.596 234.573 104.785C229.692 113.076 225.441 121.93 220.634 130.225C220.001 129.199 219.256 127.884 218.499 126.978C218.124 128.522 217.094 131.993 216.9 133.273C217.712 134.509 217.171 133.629 217.102 135.233C215.886 136.837 215.56 136.669 214.057 137.815L212.822 136.987C211.402 137.844 209.761 138.691 208.29 139.49C211.458 139.437 212.386 139.451 215.493 140.131C214.189 142.026 211.839 146.74 210.674 148.923L201.951 165.182C201.284 166.424 198.878 171.711 197.633 171.65C196.921 169.706 198.657 162.336 199.055 159.924L202.541 139.252C204.856 125.935 206.938 112.106 209.668 98.9184Z"/><path fill="#2BAEA2" d="M216.9 133.273C217.712 134.509 217.171 133.629 217.102 135.233C215.886 136.837 215.56 136.669 214.057 137.815L212.822 136.987C214.671 135.737 215.594 135.074 216.9 133.273Z"/><path fill="#FEFEFE" d="M222.185 133.526C224.442 129.565 237.374 104.408 238.948 102.888L239.44 102.892C239.985 103.656 240.035 104.911 239.957 105.822C239.379 112.623 238.573 119.355 237.97 126.163C236.997 137.146 236.438 148.224 235.033 159.16C234.876 160.381 234.49 162.551 233.359 163.183C230.832 164.751 227.627 166.015 224.884 167.23C220.788 169.039 216.717 170.901 212.671 172.818C207.778 175.112 202.946 178.627 197.621 179.204C198.72 176.635 201.134 172.473 202.547 169.88L211.459 153.487C213.484 149.78 216.148 145.145 217.789 141.338C219.553 144.393 219.916 145.21 220.842 148.578C221.382 146.098 221.795 144.238 222.848 141.878C223.179 141.136 224.157 139.666 224.299 139.3C225.011 137.813 225.595 138.19 226.695 137.123L226.012 136.597L225.749 136.142L224.843 135.909C225.532 135.457 225.606 135.478 226.012 134.739C224.822 134.346 223.379 133.826 222.185 133.526Z"/><path fill="#2BAEA2" d="M226.012 134.739C227.86 135.159 228.557 135.24 230.454 135.357C228.942 136.574 226.063 138.33 224.299 139.3C225.011 137.813 225.595 138.19 226.695 137.123L226.012 136.597L225.749 136.142L224.843 135.909C225.532 135.457 225.606 135.478 226.012 134.739Z"/><path fill="#FEFEFE" d="M82.8567 82.3415C86.1959 81.9627 89.9563 83.7829 93.173 84.8625L106.899 89.4188C115.138 92.1401 128.843 96.1346 136.434 99.4809C134.365 100.313 132.296 100.747 130.125 101.217C124.218 102.106 117.64 102.697 111.629 103.529C103.105 104.709 91.7793 106.673 83.3233 106.779C82.8095 101.17 82.0523 87.5956 82.8567 82.3415Z"/><path fill="#FEFEFE" d="M182.388 185.362C185.158 185.242 187.239 185.346 189.963 185.543C186.87 190.407 181.748 196.936 178.213 201.784C174.153 207.352 168.752 215.754 164.413 220.833C164.032 221.288 163.178 222.102 162.736 222.551C161.608 218.49 161.366 214.259 160.815 210.064C159.864 202.816 158.121 193.753 157.925 186.538C160.328 186.21 163.819 186.173 166.32 186.049C171.673 185.756 177.029 185.527 182.388 185.362Z"/><path fill="#FEFEFE" d="M153.377 186.739C153.68 186.674 153.711 186.737 154.057 186.818C154.304 187.404 155.031 193.776 155.134 194.792C155.706 200.422 156.542 205.753 157.436 211.334C157.996 214.833 158.076 218.638 158.931 222.118C152.463 217.707 147.779 214.472 141.638 209.608C136.752 205.81 127.932 198.958 123.774 194.769C127.612 192.367 147.037 188.805 153.377 186.739Z"/><path fill="#FEFEFE" d="M175.417 59.992C180.076 59.8976 190.886 63.0053 195.814 64.2537C190.829 68.9556 187.737 70.5951 182.062 74.2873C176.613 77.7829 171.208 81.3483 165.85 84.9825C161.72 87.7688 157.184 91.3639 152.511 92.628C152.54 92.556 152.569 92.484 152.599 92.4119L152.752 92.055C153.564 90.118 154.605 88.5172 155.801 86.7927C161.57 78.4708 167.263 70.0616 173.303 61.9355C173.823 61.2356 174.723 60.5236 175.417 59.992Z"/><path fill="#FEFEFE" d="M102.838 69.759C105.083 69.7009 106.196 70.4539 107.985 71.8906C111.459 74.68 114.768 77.7785 118.208 80.6505C121.601 83.4395 124.968 86.2593 128.309 89.1098C129.577 90.1732 133.699 93.0825 133.9 94.5127L133.505 94.8453C131.264 95.0888 124.57 92.5733 122 91.7334C111.159 88.3449 100.246 84.3928 89.4228 80.8867C88.3654 80.5441 86.9854 79.961 87.2232 78.7311C89.2592 76.4513 99.6881 71.2082 102.838 69.759Z"/><path fill="#FEFEFE" d="M78.9239 84.2084C80.279 86.5227 80.9898 107.088 79.3541 107.47C75.8748 108.283 57.2209 111.237 53.5677 111.339C53.1263 111.279 52.8541 111.208 52.4209 111.108L52.278 110.685C53.3916 108.561 75.7924 87.0795 78.9239 84.2084Z"/><path fill="#FEFEFE" d="M222.457 172.035L222.923 172.261C222.628 173.611 219.23 175.881 218.067 176.896C213.771 180.674 209.44 184.413 205.076 188.114L175.143 213.65L174.696 213.418C174.319 211.279 184.591 198.325 186.389 195.897C189.977 191.049 193.41 184.69 199.104 182.249C206.472 179.091 214.769 174.155 222.457 172.035Z"/><path fill="#FEFEFE" d="M88.9223 190.109C89.7768 190.147 90.6299 190.211 91.4805 190.302C96.3798 190.839 116.893 194.053 119.682 195.994C123.112 198.383 143.027 213.935 145.361 216.827L145.241 217.228C138.757 214.815 89.7829 192.617 88.4281 190.401L88.9223 190.109Z"/><path fill="#FEFEFE" d="M42.8281 120.608C44.1879 120.454 45.2358 120.668 46.5889 120.847C47.3079 121.577 48.3233 122.698 48.641 123.671C51.0298 130.991 53.8048 138.215 56.4064 145.449C58.6913 151.803 62.2923 158.986 62.826 165.678C61.6528 164.453 60.6199 162.808 59.6579 161.384C55.8057 155.683 51.8912 148.724 48.1417 142.588C44.405 136.005 39.4311 129.851 36.325 122.98C35.2937 120.698 41.6558 120.681 42.8281 120.608Z"/><path fill="#FEFEFE" d="M70.3098 74.6956C72.3908 74.6654 74.1951 76.2158 75.7863 77.4112C76.8233 78.1902 78.6425 78.744 78.6116 80.0832C76.7864 83.3318 63.6206 95.7604 60.6804 98.5662C58.8957 100.242 57.2717 101.433 55.2816 102.841C56.5187 98.7305 67.597 77.4715 70.3098 74.6956Z"/><path fill="#FEFEFE" d="M209.329 56.5324C213.45 57.9783 221.524 69.0942 225.367 72.3536C226.705 73.4891 229.954 77.2582 230.818 78.787C228.692 78.2428 227.453 77.9092 225.631 76.6952L212.255 69.2094C209.315 67.5635 205.152 65.3555 202.567 63.3186C203.561 61.1873 206.961 57.0584 209.329 56.5324Z"/><path fill="#FEFEFE" d="M116.21 74.1731C120.793 75.0109 135.136 81.1333 140.275 83.2982C141.493 87.7965 141.699 91.4839 141.846 96.0922C136.589 93.7775 119.804 78.9936 116.21 74.1731Z"/><path fill="#FEFEFE" d="M165.207 67.4791C165.442 68.1467 165.467 67.8262 165.104 68.6088C163.305 72.4916 147.947 94.3223 145.365 95.236L145.108 94.9198C144.61 91.9136 143.922 86.1064 143.765 83.1336C147.064 80.2603 162.029 68.9911 165.207 67.4791Z"/><path fill="#FEFEFE" d="M57.8793 88.671L58.4082 88.9167C58.8171 91.2473 48.6269 109.162 46.8897 111.764C43.189 113.201 41.7317 113.097 37.8123 113.123C37.5198 113.105 37.7036 113.143 37.3137 112.862C37.6878 110.562 55.329 91.2251 57.8793 88.671Z"/><path fill="#FEFEFE" d="M91.8308 70.8534C92.6848 70.7607 92.6152 70.6224 93.2281 70.971L93.079 71.533C91.2014 73.6341 85.8462 76.4801 83.0159 77.2891C81.1382 77.8259 80.1824 77.4154 78.5764 76.4987C77.4837 75.7183 75.6716 74.5126 75.3551 73.2084L75.5403 72.9475C78.793 72.1457 88.2968 71.2114 91.8308 70.8534Z"/><path fill="#FEFEFE" d="M202.932 55.8492C203.659 55.7184 203.361 55.6267 203.893 55.9367C204.197 58.2027 201.453 60.7162 199.684 61.7396C195.874 61.8515 192.505 60.9376 188.81 60.1108C187.775 59.8213 186.561 59.6046 185.979 58.7522L186.223 58.3742C190.096 57.1667 198.391 56.5453 202.932 55.8492Z"/><path fill="#FEFEFE" d="M217.102 135.233C217.716 134.518 218.455 132.8 219.056 131.813L219.485 131.801C221.095 134.556 221.935 134.952 224.843 135.909L225.749 136.142L226.012 136.597C223.54 137.838 222.13 139.232 221.257 141.857C221.117 142.283 220.982 142.712 220.852 143.142C218.832 140.302 217.481 138.992 214.057 137.815C215.56 136.669 215.886 136.837 217.102 135.233Z"/><path fill="#FEFEFE" d="M224.62 66.4719C227.238 67.0584 233.888 71.8029 237.058 73.4919L235.442 75.4428L233.705 77.1088L233.472 76.8752C231.653 75.0493 224.617 68.5819 224.62 66.4719Z"/><path fill="#FEFEFE" d="M144.292 101.804C148.136 101.631 149.362 101.736 153.162 102.419C151.163 103.1 147.51 103.775 145.305 104.285C143.99 104.579 139.084 105.557 138.462 104.219C139.315 102.837 142.714 102.089 144.292 101.804Z"/><path fill="#FEFEFE" d="M207.225 93.3017C209.876 93.4584 210.889 93.7525 213.414 94.4783C210.552 95.3481 208.536 95.8334 205.561 96.1259C203.658 96.3238 201.598 96.2375 199.672 96.2052C202.344 94.8986 204.272 93.8411 207.225 93.3017Z"/><path fill="#E0F7F9" d="M82.301 110.053C85.3016 109.912 86.4385 110.46 89.3107 111.431C87.0887 111.701 85.0142 112.045 82.8124 112.415C81.4881 112.62 79.5408 113.079 78.3582 112.749L78.2331 112.414C79.1232 111.213 80.9048 110.633 82.301 110.053Z"/><path fill="#E0F7F9" d="M48.0546 114.474C49.1361 114.544 50.8028 114.878 50.993 116.117C50.339 116.823 50.2941 116.632 49.1511 116.904L45.0384 117.425C46.1157 116.093 46.6554 115.443 48.0546 114.474Z"/><path fill="#E0F7F9" d="M239.771 89.3794C240.544 89.77 240.971 89.9544 241.111 90.7994C240.426 91.4489 240.52 91.2589 239.449 91.507C238.881 91.5528 238.907 91.5821 238.39 91.3602C238.494 90.6301 239.209 90.0332 239.771 89.3794Z"/><path fill="#D0CE16" d="M343.989 407.842C373.537 404.825 377.419 437.535 356.887 451.967C351.889 455.48 348.221 456.458 342.359 457.49C335.935 457.932 330.137 457.369 324.757 453.443C320.649 450.435 317.921 445.904 317.182 440.866C314.569 424.055 327.907 410.23 343.989 407.842ZM342.702 448.204C348.189 447.043 351.835 445.182 354.933 440.344C361.698 429.784 359.108 415.68 343.871 417.052C342.017 417.453 340.686 417.739 338.944 418.517C325.388 424.574 322.529 450.046 342.702 448.204Z"/><path fill="#D0CE16" d="M142.467 408.581C150.359 408.375 161.033 408.046 168.544 409.436C181.139 411.767 186.17 422.857 183.128 434.711C181.002 442.999 176.886 447.915 169.628 452.467C157.639 458.261 144.779 456.553 131.683 456.51C132.226 452.253 138.902 411.456 140.124 409.226C140.822 408.648 141.538 408.689 142.467 408.581ZM144.261 447.736C151.835 447.827 158.089 448.636 164.8 444.785C169.381 441.305 171.835 437.271 172.526 431.579C174.439 415.818 159.688 417.458 149.597 417.534C147.839 427.357 145.778 437.951 144.261 447.736Z"/><path fill="#D0CE16" d="M432.03 408.581C435.13 408.44 439.041 408.586 442.204 408.567C447.995 408.556 453.454 408.282 459.189 409.287C472.294 411.583 477.596 421.946 474.741 434.474C472.895 442.574 468.864 447.524 461.975 451.989C450.539 458.159 443.208 456.167 430.799 456.536C428.486 456.605 426.093 456.48 423.786 456.739L423.422 456.783C423.465 455.239 423.631 453.796 423.877 452.271C425.363 443.05 426.885 433.852 428.709 424.691C429.684 419.79 430.187 414.723 431.175 409.82C431.292 409.239 431.614 408.954 432.03 408.581ZM435.946 447.974C442.93 447.845 449.963 448.471 456.113 444.935C458.681 442.865 460.647 440.989 462.12 437.974C466.714 428.568 464.467 418.011 452.181 417.542C448.559 417.404 444.788 417.429 441.138 417.451C439.923 422.686 439.14 428.427 438.226 433.744C437.501 437.968 436.157 443.724 435.946 447.974Z"/><path fill="#D0CE16" d="M283.974 438.677C289.374 431.015 295.359 423.695 300.893 416.191C307.387 407.384 305.278 408.782 315.653 408.429C315.248 413.815 313.542 422.888 312.579 428.291C310.848 437.7 309.178 447.12 307.566 456.55C304.298 456.799 300.515 456.56 297.131 456.617C297.362 453.35 298.753 446.979 299.426 443.481C300.319 438.458 301.113 433.418 301.807 428.364C298.96 432.424 295.731 436.301 292.703 440.272C290.129 443.647 287.45 447.546 284.468 450.567C283.211 451.84 280.912 451.674 279.237 451.556C275.65 445.172 272.728 435.087 268.928 429.123C268.598 432.835 267.6 437.424 266.941 441.21C266.107 445.996 265.498 451.871 264.216 456.445C261.478 456.765 256.839 456.55 253.846 456.592C254.076 453.205 256.188 443.058 256.902 439.193C258.682 429.548 260.041 418.986 262.144 409.524C262.644 408.823 262.811 408.853 263.619 408.544C266.127 408.479 268.635 408.48 271.143 408.547C273.076 412.066 275.244 417.503 276.791 421.292C279.047 426.814 282.026 433.108 283.974 438.677Z"/><path fill="#D0CE16" d="M405.909 437.55C407.5 430.394 408.627 423.218 409.866 415.998C410.245 413.788 410.595 411.071 411.439 409.021C412.68 408.127 420.272 408.517 422.243 408.539C420.356 420.145 418.304 431.724 416.086 443.271C415.251 447.603 414.95 451.462 413.881 455.846C413.23 456.56 413.628 456.296 412.563 456.524C409.811 456.618 407.656 456.614 404.904 456.515C402.412 453.212 387.293 428.878 386.083 428.394C385.352 429.89 384.715 434.88 384.385 436.724C383.291 442.829 382.721 450.593 380.953 456.419C378.33 456.818 372.974 456.577 370.022 456.59C370.283 453.079 371.354 448.269 372.003 444.781L375.874 424.002C376.72 419.332 377.225 414.588 378.16 409.947C378.303 409.238 378.996 408.887 379.571 408.562C381.971 408.574 386.724 407.89 388.247 409.927C390.394 412.8 392.327 416.072 394.25 419.117L405.909 437.55Z"/><path fill="#D0CE16" d="M228.872 408.589C231.717 408.458 235.92 408.435 238.723 408.597C240.529 412.248 241.751 418.364 242.88 422.372C246.052 433.725 249.109 445.11 252.05 456.525C248.11 456.648 244.167 456.647 240.227 456.523C239.455 453.032 238.671 450.081 238.241 446.513C233.097 446.2 226.672 446.344 221.437 446.351C219.475 446.412 217.798 446.362 215.832 446.287C209.294 458.566 211.79 456.417 198.581 456.577C199.726 454.286 201.592 451.651 203.011 449.435L209.331 439.351C215.298 429.765 221.255 420.132 227.153 410.501C227.695 409.615 228.024 409.184 228.872 408.589ZM221.103 437.706C222.739 437.745 224.511 437.821 226.134 437.794C229.488 437.806 232.894 437.786 236.243 437.837C235.585 435.299 232.669 421.296 231.426 420.395C227.974 425.972 224.283 431.974 221.103 437.706Z"/><path fill="#FEFEFE" d="M280.562 378.026C284.699 377.966 289.673 377.708 293.639 378.635C306.013 381.528 302.678 396.405 294.031 401.501C289.273 404.366 281.216 403.773 275.677 403.557C276.235 398.152 279.205 384.756 279.965 378.676C280.164 378.459 280.363 378.243 280.562 378.026ZM278.841 401.493C283.934 401.756 288.961 402.032 293.527 399.226C300.963 393.996 302.052 381.714 291.121 380.34C288.404 379.999 285.374 380.206 282.621 380.264C281.672 382.323 279.342 398.324 278.841 401.493Z"/><path fill="#D0CE16" d="M193.996 408.597C197.348 408.508 200.702 408.499 204.054 408.57C203.622 412.803 202.321 418.717 201.522 422.989L197.448 445.733C197.151 447.448 196.191 455.342 195.714 456.357L195.063 456.527C191.698 456.633 188.127 456.567 184.744 456.554C184.973 451.561 186.764 443.588 187.672 438.496C188.811 432.103 189.984 425.681 191.233 419.286C191.831 416.222 192.065 412.3 192.876 409.238C192.961 408.92 193.593 408.767 193.996 408.597Z"/><path fill="#FEFEFE" d="M386.326 377.686C387.097 377.736 387.049 377.754 387.733 378.136C389.675 380.487 393.249 399.056 394.926 403.229C395.233 403.995 393.389 403.741 392.931 403.592C391.305 402.042 391.08 398.741 390.739 396.491L378.437 396.509C373.782 396.156 374.48 404.923 370.287 403.553L370.072 403.106C370.308 401.951 385.033 378.667 386.326 377.686ZM378.059 394.332C379.801 394.464 381.07 394.529 382.812 394.514C385.22 394.525 387.926 394.483 390.31 394.561C388.866 391.401 387.139 382.123 386.213 381.409C383.114 385.202 380.779 390.302 378.059 394.332Z"/><path fill="#FEFEFE" d="M256.931 377.683C259.301 377.695 259.411 380.943 259.949 382.908C261.104 387.015 262.206 391.137 263.255 395.273C263.882 397.66 264.643 400.11 265.239 402.506C265.395 403.132 265.28 403.084 264.952 403.558C261.825 404.183 261.561 398.748 261.11 396.446C257.169 396.57 252.903 396.498 248.937 396.503C244.029 396.351 245.486 404.102 240.764 403.681C240.582 403.41 240.359 403.211 240.509 402.971C245.145 395.517 249.838 387.861 254.594 380.446C255.369 379.237 256.164 378.386 256.931 377.683ZM248.349 394.508C249.825 394.515 251.341 394.504 252.813 394.534C255.369 394.58 257.927 394.579 260.484 394.531C259.227 391.296 257.81 382.982 256.851 381.426C254.197 384.5 250.784 390.885 248.349 394.508Z"/><path fill="#FEFEFE" d="M345.838 398.785C346.836 392.732 347.639 386.518 348.923 380.512C349.191 379.258 349.731 378.145 350.974 377.685C351.949 377.935 351.6 377.663 352.1 378.466C352.118 378.675 347.711 403.409 347.551 403.735C347.131 403.769 346.193 403.839 345.871 403.576C343.037 401.26 335.097 385.011 333.212 383.915C331.762 384.59 331.258 401.319 328.091 403.775C327.238 403.824 327.634 403.932 326.901 403.313C326.889 403.224 326.83 402.833 326.842 402.76C328.036 394.866 329.433 386.795 331.105 378.99C331.183 378.628 331.829 377.896 332.054 377.648C335.448 379.402 342.724 394.49 345.838 398.785Z"/><path fill="#FEFEFE" d="M188.068 377.586C191.686 378.58 199.603 397.381 201.81 398.016C203.477 395.754 204.023 380.315 206.586 377.821C207.381 377.773 207.021 377.684 207.704 378.104C208.429 379.44 204.387 400.801 203.953 403.714C203.082 403.8 202.971 403.775 202.133 403.692C201.047 403.128 191.02 385.951 189.223 383.421C187.844 389.88 186.88 396.526 185.583 402.999C185.448 403.676 183.827 403.705 183.326 403.612L183.05 403.164C183.036 402.259 183.387 400.217 183.642 399.347C185.013 394.672 185.816 381.003 188.068 377.586Z"/><path fill="#FEFEFE" d="M309.298 377.99C312.094 378.077 323.892 377.72 325.521 378.401C326.058 379.049 325.939 378.691 325.941 379.491C324.035 381.217 313.853 379.369 311.106 380.637C310.59 381.806 309.961 387.05 309.372 389.273C311.854 389.428 314.341 389.514 316.829 389.531C318.372 389.538 321.631 389.086 322.442 390.268L322.221 390.682C319.75 391.944 311.367 390.899 309.049 391.582C308.505 392.339 308.527 393.35 308.43 394.309C308.12 396.823 307.792 398.988 307.048 401.412C309.548 401.721 321.476 401.563 322.404 402.359C322.427 403.109 322.531 402.756 321.937 403.4C320.195 403.797 306.621 403.627 304.159 403.549C305.166 397.159 307.461 385.462 308.634 378.574C308.856 378.379 309.077 378.185 309.298 377.99Z"/><path fill="#FEFEFE" d="M144.613 378.073C146.438 378.016 154.091 379.726 153.717 381.947C152.591 383.211 152.477 383.289 150.813 382.395C147.867 380.861 147.138 379.83 143.624 380.264C134.593 381.377 128.311 393.278 135.774 399.907C137.822 401.726 142.021 401.447 144.831 400.872C146.69 400.253 147.59 399.311 149.369 398.83C150.114 399.031 150.105 398.972 150.592 399.553L150.532 400.069C149.303 401.501 146.343 402.814 144.431 403.245C132.111 406.025 125.545 394.637 132.497 384.728C135.591 380.319 139.331 378.952 144.613 378.073Z"/><path fill="#FEFEFE" d="M233.627 378.072C236.6 377.844 241.354 379.096 243.374 381.377C243.726 383.078 241.604 383.166 241.468 383.039C231.398 373.616 214.34 390.778 225.539 399.885C227.703 401.645 230.532 401.623 233.179 401.174C235.928 400.724 238.158 398.791 239.561 399.106C240.022 399.961 239.968 399.534 239.837 400.414C238.598 401.872 235.695 402.885 233.801 403.327C222.136 406.046 215.657 394.456 221.915 385.119C224.793 380.825 228.696 379.023 233.627 378.072Z"/><path fill="#FEFEFE" d="M355.028 378.015C359.245 377.988 363.462 377.986 367.679 378.009C369.401 378.01 373.566 377.566 374.739 378.529C375.077 379.456 375.058 379.005 374.857 379.925C373.617 380.234 367.247 380.24 365.624 380.264C365.358 383.978 363.786 391.936 363.1 395.779C362.821 397.904 362.665 402.856 360.425 403.661C360.138 403.62 359.779 403.678 359.62 403.403C358.812 402.007 362.538 383.268 363.187 380.282C361.118 380.209 355.89 380.895 354.554 379.505C354.533 378.624 354.544 378.893 355.028 378.015Z"/><path fill="#FEFEFE" d="M159.742 377.634C160.595 377.8 160.562 377.755 161.262 378.251C161.714 379.308 157.991 399.187 157.26 401.41C161.925 401.772 166.761 401.522 171.34 402.055C171.591 402.084 171.574 402.497 171.611 402.713L170.945 403.519C166.742 403.781 158.674 403.651 154.4 403.476C154.805 398.414 156.267 392.685 157.053 387.625C157.421 385.25 158.059 378.963 159.742 377.634Z"/><path fill="#FEFEFE" d="M402.299 377.701C403.422 377.823 403.342 377.637 404.091 378.224C404.321 379.158 400.573 399.207 400.039 401.497C403.886 401.576 409.978 401.461 413.822 402.177C414.202 402.247 414.134 402.301 414.306 402.744C413.858 403.469 414.162 403.196 413.313 403.529C407.998 403.787 402.299 403.553 396.905 403.658C398.634 395.452 399.686 387.126 401.348 378.92C401.451 378.414 401.93 378.013 402.299 377.701Z"/><path fill="#FEFEFE" d="M178.832 377.679C179.797 377.767 179.966 377.662 180.572 378.393C180.763 380.523 177.03 401.257 175.917 403.587C174.936 403.7 174.733 403.866 174.054 403.45C173.42 400.81 177.611 382.604 178.032 378.946C178.077 378.554 178.562 377.979 178.832 377.679Z"/><defs><linearGradient id="gradient_0" gradientUnits="userSpaceOnUse" x1="211.30963" y1="390.73642" x2="216.4417" y2="390.76358"><stop offset="0" stop-color="#EBF8FA"/><stop offset="1" stop-color="#FFFAFD"/></linearGradient></defs><path fill="url(#gradient_0)" d="M215.973 377.669C216.962 377.881 217.028 377.956 217.401 378.785C217.303 379.805 217.047 382.089 216.814 382.978C215.894 386.491 214.042 401.854 212.517 403.812C211.542 403.738 211.228 403.857 210.583 403.341C210.449 400.492 212.286 394.535 212.664 391.486C213.167 387.432 213.976 383.089 214.725 379.056C214.805 378.63 215.625 377.958 215.973 377.669Z"/><path fill="#E0F7F9" d="M185.013 370.984L185.841 371.143C185.982 371.505 186.122 371.601 185.918 371.874C184.962 373.155 180.735 375.846 179.336 376.417C178.769 376.342 178.809 376.349 178.338 376.021C178.465 374.266 183.343 371.228 185.013 370.984Z"/></svg>